<?xml version="1.0" encoding="UTF-8" standalone="no"?>
<!-- Created with Inkscape (http://www.inkscape.org/) -->

<svg
   xmlns:dc="http://purl.org/dc/elements/1.1/"
   xmlns:cc="http://creativecommons.org/ns#"
   xmlns:rdf="http://www.w3.org/1999/02/22-rdf-syntax-ns#"
   xmlns:svg="http://www.w3.org/2000/svg"
   xmlns="http://www.w3.org/2000/svg"
   xmlns:sodipodi="http://sodipodi.sourceforge.net/DTD/sodipodi-0.dtd"
   xmlns:inkscape="http://www.inkscape.org/namespaces/inkscape"
   width="134.80574mm"
   height="12.5984mm"
   viewBox="0 0 477.65814 44.64"
   id="svg2"
   version="1.1"
   inkscape:version="0.91 r13725"
   sodipodi:docname="sorty.svg">
  <defs
     id="defs4" />
  <sodipodi:namedview
     id="base"
     pagecolor="#ffffff"
     bordercolor="#666666"
     borderopacity="1.0"
     inkscape:pageopacity="0.0"
     inkscape:pageshadow="2"
     inkscape:zoom="2.1462836"
     inkscape:cx="269.40227"
     inkscape:cy="5.3646977"
     inkscape:document-units="px"
     inkscape:current-layer="text4136"
     showgrid="false"
     inkscape:window-width="1920"
     inkscape:window-height="1023"
     inkscape:window-x="0"
     inkscape:window-y="31"
     inkscape:window-maximized="1"
     fit-margin-top="0"
     fit-margin-left="0"
     fit-margin-right="0"
     fit-margin-bottom="0" />
  <metadata
     id="metadata7">
    <rdf:RDF>
      <cc:Work
         rdf:about="">
        <dc:format>image/svg+xml</dc:format>
        <dc:type
           rdf:resource="http://purl.org/dc/dcmitype/StillImage" />
        <dc:title></dc:title>
      </cc:Work>
    </rdf:RDF>
  </metadata>
  <g
     inkscape:label="Layer 1"
     inkscape:groupmode="layer"
     id="layer1"
     transform="translate(169.07718,-360.49609)">
    <g
       style="font-style:normal;font-weight:normal;font-size:22.5px;line-height:125%;font-family:sans-serif;text-align:end;letter-spacing:0px;word-spacing:0px;text-anchor:end;fill:#eee;fill-opacity:1;stroke:none;stroke-width:1px;stroke-linecap:butt;stroke-linejoin:miter;stroke-opacity:1"
       id="text4136">
      <path
         d="m -126.46218,362.74609 -4.5,0 -6.93,26.595 -7.965,-25.965 -3.87,0 -7.875,26.01 -6.975,-26.64 -4.5,0 8.82,31.5 4.725,0 7.695,-25.83 7.425,25.83 4.725,0 9.225,-31.5 z"
         style="font-style:normal;font-variant:normal;font-weight:normal;font-stretch:normal;font-size:45px;font-family:Cabin;-inkscape-font-specification:Cabin;text-align:start;text-anchor:start"
         id="path4143"
         inkscape:connector-curvature="0" />
      <path
         d="m -106.27336,383.22109 c 0.135,-0.765 0.18,-1.53 0.18,-2.16 0,-5.94 -4.005,-9.315 -9.495,-9.315 -6.84,0 -10.8,5.13 -10.8,11.295 0,6.345 4.14,11.655 11.925,11.655 3.195,0 5.67,-0.945 7.38,-1.71 l -0.54,-3.195 c -1.98,0.9 -4.32,1.305 -6.345,1.305 -4.185,0 -7.695,-1.755 -8.28,-7.875 l 15.975,0 z m -9.405,-7.875 c 3.69,0 5.4,1.98 5.4,5.085 l -11.61,0 c 0.81,-3.195 2.61,-5.085 6.21,-5.085 z"
         style="font-style:normal;font-variant:normal;font-weight:normal;font-stretch:normal;font-size:45px;font-family:Cabin;-inkscape-font-specification:Cabin;text-align:start;text-anchor:start"
         id="path4145"
         inkscape:connector-curvature="0" />
      <path
         d="m -73.40859,391.45609 -0.405,0 c -2.34,0 -2.52,-1.485 -2.52,-4.635 l 0,-4.5 c 0,-7.965 -2.205,-10.575 -7.785,-10.575 -2.925,0 -5.715,0.945 -7.47,2.295 l 0.585,3.285 c 2.34,-1.62 4.14,-1.98 5.805,-1.98 3.105,0 4.815,0.9 4.815,5.085 -5.625,0.09 -13.185,1.665 -13.185,7.875 0,3.69 2.7,6.39 6.795,6.39 2.835,0 5.085,-1.305 6.75,-3.24 0.9,2.07 1.755,3.24 5.67,3.24 l 0.315,0 0.63,-3.24 z m -6.975,-2.97 c -1.305,1.8 -3.465,2.97 -5.625,2.97 -2.025,0 -3.42,-0.99 -3.42,-3.375 0,-3.285 2.61,-4.635 9.045,-4.86 l 0,5.265 z"
         style="font-style:normal;font-variant:normal;font-weight:normal;font-stretch:normal;font-size:45px;font-family:Cabin;-inkscape-font-specification:Cabin;text-align:start;text-anchor:start"
         id="path4147"
         inkscape:connector-curvature="0" />
      <path
         d="m -58.627496,371.38609 -0.36,0 c -2.7,0 -4.815,1.44 -7.47,4.455 l -0.495,-3.645 -3.33,0 0,22.05 4.32,0 0,-15.57 c 0.765,-1.395 3.195,-2.835 5.04,-2.835 l 1.395,0 0.9,-4.455 z"
         style="font-style:normal;font-variant:normal;font-weight:normal;font-stretch:normal;font-size:45px;font-family:Cabin;-inkscape-font-specification:Cabin;text-align:start;text-anchor:start"
         id="path4149"
         inkscape:connector-curvature="0" />
      <path
         d="m -37.718668,383.22109 c 0.135,-0.765 0.18,-1.53 0.18,-2.16 0,-5.94 -4.005,-9.315 -9.495,-9.315 -6.84,0 -10.8,5.13 -10.8,11.295 0,6.345 4.14,11.655 11.925,11.655 3.195,0 5.67,-0.945 7.38,-1.71 l -0.54,-3.195 c -1.98,0.9 -4.32,1.305 -6.345,1.305 -4.185,0 -7.695,-1.755 -8.28,-7.875 l 15.975,0 z m -9.405,-7.875 c 3.69,0 5.4,1.98 5.4,5.085 l -11.61,0 c 0.81,-3.195 2.61,-5.085 6.21,-5.085 z"
         style="font-style:normal;font-variant:normal;font-weight:normal;font-stretch:normal;font-size:45px;font-family:Cabin;-inkscape-font-specification:Cabin;text-align:start;text-anchor:start"
         id="path4151"
         inkscape:connector-curvature="0" />
      <path
         d="m -13.493903,394.87609 c 10.6200004,0 12.1950004,-5.58 12.1950004,-9.18 0,-6.93 -5.985,-8.73 -10.8900004,-10.215 -3.42,-1.035 -6.345,-2.025 -6.345,-4.545 0,-2.7 3.33,-3.33 5.76,-3.33 3.0150004,0 5.8500004,0.99 9.2250004,2.835 l 0.585,-5.895 c -1.62,-1.08 -5.715,-2.43 -10.0350004,-2.43 -8.505,0 -11.385,5.265 -11.385,9.45 0,5.625 4.86,7.2 9.315,8.73 3.825,1.305 7.3350004,2.43 7.3350004,5.625 0,2.565 -2.25,3.42 -5.6250004,3.42 -4.725,0 -8.19,-1.665 -9.9,-3.33 l -0.675,6.57 c 1.8,1.17 5.67,2.295 10.44,2.295 z"
         style="font-weight:bold"
         id="path4153"
         inkscape:connector-curvature="0" />
      <path
         d="m 12.654613,394.69609 c 7.2,0 11.385,-5.355 11.385,-11.655 0,-6.3 -4.185,-11.655 -11.385,-11.655 -7.2,0 -11.385,5.355 -11.385,11.655 0,6.3 4.185,11.655 11.385,11.655 z m 0,-18.72 c 3.6,0 5.67,2.88 5.67,7.065 0,4.185 -2.07,7.065 -5.67,7.065 -3.6,0 -5.67,-2.88 -5.67,-7.065 0,-4.185 2.07,-7.065 5.67,-7.065 z"
         style="font-weight:bold"
         id="path4155"
         inkscape:connector-curvature="0" />
      <path
         d="m 40.757113,371.38609 -1.485,0 c -2.565,0 -4.815,1.53 -5.985,2.745 l -0.135,-2.385 -5.22,0 0,22.5 5.58,0 0,-15.345 c 0.63,-1.26 2.25,-2.25 4.095,-2.25 l 2.07,0 1.08,-5.265 z"
         style="font-weight:bold"
         id="path4157"
         inkscape:connector-curvature="0" />
      <path
         d="m 55.147972,390.10609 -1.53,0 c -3.15,0 -3.42,-0.18 -3.42,-3.6 l 0,-10.17 4.95,0 0,-4.59 -4.95,0 0,-5.535 -5.58,0.585 0,4.95 -2.7,0 -0.495,4.59 3.195,0 0,12.465 c 0,2.925 1.8,5.895 6.03,5.895 l 4.005,0 0.495,-4.59 z"
         style="font-weight:bold"
         id="path4159"
         inkscape:connector-curvature="0" />
      <path
         d="m 80.246722,371.74609 -6.21,0 -5.85,14.49 -5.76,-14.49 -6.21,0 9.36,21.015 -4.995,12.375 5.58,0 14.085,-33.39 z"
         style="font-weight:bold"
         id="path4161"
         inkscape:connector-curvature="0" />
      <path
         d="m 125.95407,394.24609 -4.365,-31.5 -4.725,0 -7.65,14.355 -7.695,-14.355 -4.725004,0 -4.365,31.5 5.985,0 2.700004,-21.06 8.1,14.445 8.055,-14.49 2.7,21.105 5.985,0 z"
         style="font-weight:bold"
         id="path4163"
         inkscape:connector-curvature="0" />
      <path
         d="m 139.55813,394.69609 c 3.6,0 5.31,-0.765 6.75,-1.665 l -0.495,-4.77 c -1.845,1.215 -3.645,1.845 -5.805,1.845 -3.6,0 -5.67,-2.88 -5.67,-7.065 0,-4.185 2.07,-7.065 5.67,-7.065 2.16,0 3.96,0.63 5.805,1.845 l 0.495,-4.77 c -1.44,-0.9 -3.15,-1.665 -6.75,-1.665 -7.2,0 -10.935,5.355 -10.935,11.655 0,6.3 3.735,11.655 10.935,11.655 z"
         style="font-weight:bold"
         id="path4165"
         inkscape:connector-curvature="0" />
      <path
         d="m 159.47485,394.87609 c 10.62,0 12.195,-5.58 12.195,-9.18 0,-6.93 -5.985,-8.73 -10.89,-10.215 -3.42,-1.035 -6.345,-2.025 -6.345,-4.545 0,-2.7 3.33,-3.33 5.76,-3.33 3.015,0 5.85,0.99 9.225,2.835 l 0.585,-5.895 c -1.62,-1.08 -5.715,-2.43 -10.035,-2.43 -8.505,0 -11.385,5.265 -11.385,9.45 0,5.625 4.86,7.2 9.315,8.73 3.825,1.305 7.335,2.43 7.335,5.625 0,2.565 -2.25,3.42 -5.625,3.42 -4.725,0 -8.19,-1.665 -9.9,-3.33 l -0.675,6.57 c 1.8,1.17 5.67,2.295 10.44,2.295 z"
         style="font-weight:bold"
         id="path4167"
         inkscape:connector-curvature="0" />
      <path
         d="m 185.62336,394.69609 c 7.2,0 11.385,-5.355 11.385,-11.655 0,-6.3 -4.185,-11.655 -11.385,-11.655 -7.2,0 -11.385,5.355 -11.385,11.655 0,6.3 4.185,11.655 11.385,11.655 z m 0,-18.72 c 3.6,0 5.67,2.88 5.67,7.065 0,4.185 -2.07,7.065 -5.67,7.065 -3.6,0 -5.67,-2.88 -5.67,-7.065 0,-4.185 2.07,-7.065 5.67,-7.065 z"
         style="font-weight:bold"
         id="path4169"
         inkscape:connector-curvature="0" />
      <path
         d="m 213.72586,371.38609 -1.485,0 c -2.565,0 -4.815,1.53 -5.985,2.745 l -0.135,-2.385 -5.22,0 0,22.5 5.58,0 0,-15.345 c 0.63,-1.26 2.25,-2.25 4.095,-2.25 l 2.07,0 1.08,-5.265 z"
         style="font-weight:bold"
         id="path4171"
         inkscape:connector-curvature="0" />
      <path
         d="m 228.11672,390.10609 -1.53,0 c -3.15,0 -3.42,-0.18 -3.42,-3.6 l 0,-10.17 4.95,0 0,-4.59 -4.95,0 0,-5.535 -5.58,0.585 0,4.95 -2.7,0 -0.495,4.59 3.195,0 0,12.465 c 0,2.925 1.8,5.895 6.03,5.895 l 4.005,0 0.495,-4.59 z"
         style="font-weight:bold"
         id="path4173"
         inkscape:connector-curvature="0" />
      <path
         d="m 243.63047,376.33609 0,-4.59 -4.95,0 0,-3.06 c 0,-2.745 0.36,-3.51 2.025,-3.51 0.36,0 1.395,0 2.385,0.225 l 0.495,-4.635 c -1.485,-0.135 -2.115,-0.27 -5.085,-0.27 -3.645,0 -5.4,2.97 -5.4,5.895 l 0,5.355 -2.7,0 -0.495,4.59 3.195,0 0,17.91 5.58,0 0,-17.91 4.95,0 z"
         style="font-weight:bold"
         id="path4175"
         inkscape:connector-curvature="0" />
      <path
         d="m 266.17266,390.10609 -0.72,0 c -1.62,0 -1.98,-0.225 -1.98,-3.6 l 0,-6.075 c 0,-6.525 -3.105,-9.045 -8.145,-9.045 -2.79,0 -5.49,0.675 -8.19,1.98 l 0.495,4.545 c 2.385,-1.17 4.14,-1.71 6.165,-1.71 2.88,0 3.915,1.125 4.05,3.69 -4.23,0.135 -12.645,1.71 -12.645,8.055 0,4.275 2.925,6.75 6.525,6.75 2.7,0 5.4,-0.945 6.885,-2.61 0.855,1.575 2.52,2.61 5.04,2.61 l 2.025,0 0.495,-4.59 z m -8.28,-1.305 c -1.17,1.125 -2.835,1.62 -3.825,1.62 -2.115,0 -3.015,-0.855 -3.015,-2.7 0,-2.655 3.69,-3.915 6.84,-4.05 l 0,5.13 z"
         style="font-weight:bold"
         id="path4177"
         inkscape:connector-curvature="0" />
      <path
         d="m 278.86477,394.69609 c 3.6,0 5.31,-0.765 6.75,-1.665 l -0.495,-4.77 c -1.845,1.215 -3.645,1.845 -5.805,1.845 -3.6,0 -5.67,-2.88 -5.67,-7.065 0,-4.185 2.07,-7.065 5.67,-7.065 2.16,0 3.96,0.63 5.805,1.845 l 0.495,-4.77 c -1.44,-0.9 -3.15,-1.665 -6.75,-1.665 -7.2,0 -10.935,5.355 -10.935,11.655 0,6.3 3.735,11.655 10.935,11.655 z"
         style="font-weight:bold"
         id="path4179"
         inkscape:connector-curvature="0" />
      <path
         d="m 308.22094,384.21109 c 0.225,-1.08 0.36,-2.07 0.36,-3.06 0,-5.94 -4.23,-9.765 -9.9,-9.765 -6.93,0 -10.8,5.4 -10.8,11.655 0,6.3 4.05,11.655 12.195,11.655 3.195,0 5.805,-0.81 7.515,-1.71 l -0.27,-4.725 c -1.845,0.99 -4.815,1.845 -6.93,1.845 -2.97,0 -6.075,-1.71 -6.705,-5.895 l 14.535,0 z m -9.36,-8.235 c 3.015,0 4.05,2.43 4.05,4.455 l -9.09,0 c 0.54,-2.565 2.16,-4.455 5.04,-4.455 z"
         style="font-weight:bold"
         id="path4181"
         inkscape:connector-curvature="0" />
    </g>
  </g>
</svg>
